<svg version="1.2" xmlns="http://www.w3.org/2000/svg" viewBox="0 0 154 23" width="154" height="23">
	<title>logo-svg</title>
	<defs>
		<clipPath clipPathUnits="userSpaceOnUse" id="cp1">
			<path d="m170 7h198v15h-198zm6.24 10.47q1.19 0 2.14-0.51 0.95-0.53 1.5-1.45 0.54-0.93 0.54-2.07 0-1.13-0.54-2.05-0.55-0.93-1.5-1.45-0.95-0.52-2.14-0.52-1.18 0-2.15 0.52-0.95 0.52-1.51 1.45-0.54 0.92-0.54 2.05 0 1.14 0.54 2.07 0.56 0.92 1.51 1.45 0.97 0.51 2.15 0.51zm14.9 0.03q0.78 0 1.42-0.35 0.65-0.36 1-1.01 0.37-0.65 0.37-1.49 0-0.83-0.37-1.47-0.35-0.65-1-1.01-0.64-0.36-1.42-0.36-0.8 0-1.44 0.36-0.63 0.36-1 1.01-0.35 0.64-0.35 1.47 0 0.84 0.35 1.49 0.37 0.65 1 1.01 0.64 0.35 1.44 0.35zm33.34-5.71q-1.08 0-1.82 0.68-0.73 0.67-0.83 1.75h5.32q-0.1-1.08-0.84-1.75-0.73-0.68-1.83-0.68zm18.12 5.71q0.8 0 1.43-0.35 0.64-0.36 0.99-1.01 0.36-0.65 0.36-1.49 0-0.83-0.36-1.48-0.35-0.66-0.99-1-0.63-0.36-1.43-0.36-0.8 0-1.44 0.36-0.62 0.34-0.99 1-0.36 0.65-0.36 1.48 0 0.84 0.36 1.49 0.37 0.65 0.99 1.01 0.64 0.35 1.44 0.35zm46.15 0.1q0.85 0 1.47-0.38 0.61-0.39 0.91-1.11v-1.19h-2.35q-1.93 0-1.93 1.3 0 0.64 0.5 1.02 0.5 0.36 1.4 0.36zm19.1 0q0.86 0 1.47-0.38 0.61-0.39 0.91-1.11v-1.19h-2.35q-1.92 0-1.92 1.3 0 0.64 0.49 1.02 0.5 0.36 1.4 0.36zm21.54-5.81q-1.08 0-1.82 0.68-0.73 0.67-0.83 1.75h5.32q-0.11-1.08-0.85-1.75-0.72-0.68-1.82-0.68zm33.98 0q-1.09 0-1.83 0.68-0.72 0.67-0.82 1.75h5.31q-0.1-1.08-0.84-1.75-0.73-0.68-1.82-0.68z"/>
		</clipPath>
		<clipPath clipPathUnits="userSpaceOnUse" id="cp2">
			<path d="m170 7h198v15h-198zm6.24 10.47q1.19 0 2.14-0.51 0.95-0.53 1.5-1.45 0.54-0.93 0.54-2.07 0-1.13-0.54-2.05-0.55-0.93-1.5-1.45-0.95-0.52-2.14-0.52-1.18 0-2.15 0.52-0.95 0.52-1.51 1.45-0.54 0.92-0.54 2.05 0 1.14 0.54 2.07 0.56 0.92 1.51 1.45 0.97 0.51 2.15 0.51zm14.9 0.03q0.78 0 1.42-0.35 0.65-0.36 1-1.01 0.37-0.65 0.37-1.49 0-0.83-0.37-1.47-0.35-0.65-1-1.01-0.64-0.36-1.42-0.36-0.8 0-1.44 0.36-0.63 0.36-1 1.01-0.35 0.64-0.35 1.47 0 0.84 0.35 1.49 0.37 0.65 1 1.01 0.64 0.35 1.44 0.35zm33.34-5.71q-1.08 0-1.82 0.68-0.73 0.67-0.83 1.75h5.32q-0.1-1.08-0.84-1.75-0.73-0.68-1.83-0.68zm18.12 5.71q0.8 0 1.43-0.35 0.64-0.36 0.99-1.01 0.36-0.65 0.36-1.49 0-0.83-0.36-1.48-0.35-0.66-0.99-1-0.63-0.36-1.43-0.36-0.8 0-1.44 0.36-0.62 0.34-0.99 1-0.36 0.65-0.36 1.48 0 0.84 0.36 1.49 0.37 0.65 0.99 1.01 0.64 0.35 1.44 0.35zm46.15 0.1q0.85 0 1.47-0.38 0.61-0.39 0.91-1.11v-1.19h-2.35q-1.93 0-1.93 1.3 0 0.64 0.5 1.02 0.5 0.36 1.4 0.36zm19.1 0q0.86 0 1.47-0.38 0.61-0.39 0.91-1.11v-1.19h-2.35q-1.92 0-1.92 1.3 0 0.64 0.49 1.02 0.5 0.36 1.4 0.36zm21.54-5.81q-1.08 0-1.82 0.68-0.73 0.67-0.83 1.75h5.32q-0.11-1.08-0.85-1.75-0.72-0.68-1.82-0.68zm33.98 0q-1.09 0-1.83 0.68-0.72 0.67-0.82 1.75h5.31q-0.1-1.08-0.84-1.75-0.73-0.68-1.82-0.68z"/>
		</clipPath>
		<clipPath clipPathUnits="userSpaceOnUse" id="cp3">
			<path d="m170 7h198v15h-198zm6.24 10.47q1.19 0 2.14-0.51 0.95-0.53 1.5-1.45 0.54-0.93 0.54-2.07 0-1.13-0.54-2.05-0.55-0.93-1.5-1.45-0.95-0.52-2.14-0.52-1.18 0-2.15 0.52-0.95 0.52-1.51 1.45-0.54 0.92-0.54 2.05 0 1.14 0.54 2.07 0.56 0.92 1.51 1.45 0.97 0.51 2.15 0.51zm14.9 0.03q0.78 0 1.42-0.35 0.65-0.36 1-1.01 0.37-0.65 0.37-1.49 0-0.83-0.37-1.47-0.35-0.65-1-1.01-0.64-0.36-1.42-0.36-0.8 0-1.44 0.36-0.63 0.36-1 1.01-0.35 0.64-0.35 1.47 0 0.84 0.35 1.49 0.37 0.65 1 1.01 0.64 0.35 1.44 0.35zm33.34-5.71q-1.08 0-1.82 0.68-0.73 0.67-0.83 1.75h5.32q-0.1-1.08-0.84-1.75-0.73-0.68-1.83-0.68zm18.12 5.71q0.8 0 1.43-0.35 0.64-0.36 0.99-1.01 0.36-0.65 0.36-1.49 0-0.83-0.36-1.48-0.35-0.66-0.99-1-0.63-0.36-1.43-0.36-0.8 0-1.44 0.36-0.62 0.34-0.99 1-0.36 0.65-0.36 1.48 0 0.84 0.36 1.49 0.37 0.65 0.99 1.01 0.64 0.35 1.44 0.35zm46.15 0.1q0.85 0 1.47-0.38 0.61-0.39 0.91-1.11v-1.19h-2.35q-1.93 0-1.93 1.3 0 0.64 0.5 1.02 0.5 0.36 1.4 0.36zm19.1 0q0.86 0 1.47-0.38 0.61-0.39 0.91-1.11v-1.19h-2.35q-1.92 0-1.92 1.3 0 0.64 0.49 1.02 0.5 0.36 1.4 0.36zm21.54-5.81q-1.08 0-1.82 0.68-0.73 0.67-0.83 1.75h5.32q-0.11-1.08-0.85-1.75-0.72-0.68-1.82-0.68zm33.98 0q-1.09 0-1.83 0.68-0.72 0.67-0.82 1.75h5.31q-0.1-1.08-0.84-1.75-0.73-0.68-1.82-0.68z"/>
		</clipPath>
		<clipPath clipPathUnits="userSpaceOnUse" id="cp4">
			<path d="m170 7h198v15h-198zm6.24 10.47q1.19 0 2.14-0.51 0.95-0.53 1.5-1.45 0.54-0.93 0.54-2.07 0-1.13-0.54-2.05-0.55-0.93-1.5-1.45-0.95-0.52-2.14-0.52-1.18 0-2.15 0.52-0.95 0.52-1.51 1.45-0.54 0.92-0.54 2.05 0 1.14 0.54 2.07 0.56 0.92 1.51 1.45 0.97 0.51 2.15 0.51zm14.9 0.03q0.78 0 1.42-0.35 0.65-0.36 1-1.01 0.37-0.65 0.37-1.49 0-0.83-0.37-1.47-0.35-0.65-1-1.01-0.64-0.36-1.42-0.36-0.8 0-1.44 0.36-0.63 0.36-1 1.01-0.35 0.64-0.35 1.47 0 0.84 0.35 1.49 0.37 0.65 1 1.01 0.64 0.35 1.44 0.35zm33.34-5.71q-1.08 0-1.82 0.68-0.73 0.67-0.83 1.75h5.32q-0.1-1.08-0.84-1.75-0.73-0.68-1.83-0.68zm18.12 5.71q0.8 0 1.43-0.35 0.64-0.36 0.99-1.01 0.36-0.65 0.36-1.49 0-0.83-0.36-1.48-0.35-0.66-0.99-1-0.63-0.36-1.43-0.36-0.8 0-1.44 0.36-0.62 0.34-0.99 1-0.36 0.65-0.36 1.48 0 0.84 0.36 1.49 0.37 0.65 0.99 1.01 0.64 0.35 1.44 0.35zm46.15 0.1q0.85 0 1.47-0.38 0.61-0.39 0.91-1.11v-1.19h-2.35q-1.93 0-1.93 1.3 0 0.64 0.5 1.02 0.5 0.36 1.4 0.36zm19.1 0q0.86 0 1.47-0.38 0.61-0.39 0.91-1.11v-1.19h-2.35q-1.92 0-1.92 1.3 0 0.64 0.49 1.02 0.5 0.36 1.4 0.36zm21.54-5.81q-1.08 0-1.82 0.68-0.73 0.67-0.83 1.75h5.32q-0.11-1.08-0.85-1.75-0.72-0.68-1.82-0.68zm33.98 0q-1.09 0-1.83 0.68-0.72 0.67-0.82 1.75h5.31q-0.1-1.08-0.84-1.75-0.73-0.68-1.82-0.68z"/>
		</clipPath>
		<clipPath clipPathUnits="userSpaceOnUse" id="cp5">
			<path d="m170 7h198v15h-198zm6.24 10.47q1.19 0 2.14-0.51 0.95-0.53 1.5-1.45 0.54-0.93 0.54-2.07 0-1.13-0.54-2.05-0.55-0.93-1.5-1.45-0.95-0.52-2.14-0.52-1.18 0-2.15 0.52-0.95 0.52-1.51 1.45-0.54 0.92-0.54 2.05 0 1.14 0.54 2.07 0.56 0.92 1.51 1.45 0.97 0.51 2.15 0.51zm14.9 0.03q0.78 0 1.42-0.35 0.65-0.36 1-1.01 0.37-0.65 0.37-1.49 0-0.83-0.37-1.47-0.35-0.65-1-1.01-0.64-0.36-1.42-0.36-0.8 0-1.44 0.36-0.63 0.36-1 1.01-0.35 0.64-0.35 1.47 0 0.84 0.35 1.49 0.37 0.65 1 1.01 0.64 0.35 1.44 0.35zm33.34-5.71q-1.08 0-1.82 0.68-0.73 0.67-0.83 1.75h5.32q-0.1-1.08-0.84-1.75-0.73-0.68-1.83-0.68zm18.12 5.71q0.8 0 1.43-0.35 0.64-0.36 0.99-1.01 0.36-0.65 0.36-1.49 0-0.83-0.36-1.48-0.35-0.66-0.99-1-0.63-0.36-1.43-0.36-0.8 0-1.44 0.36-0.62 0.34-0.99 1-0.36 0.65-0.36 1.48 0 0.84 0.36 1.49 0.37 0.65 0.99 1.01 0.64 0.35 1.44 0.35zm46.15 0.1q0.85 0 1.47-0.38 0.61-0.39 0.91-1.11v-1.19h-2.35q-1.93 0-1.93 1.3 0 0.64 0.5 1.02 0.5 0.36 1.4 0.36zm19.1 0q0.86 0 1.47-0.38 0.61-0.39 0.91-1.11v-1.19h-2.35q-1.92 0-1.92 1.3 0 0.64 0.49 1.02 0.5 0.36 1.4 0.36zm21.54-5.81q-1.08 0-1.82 0.68-0.73 0.67-0.83 1.75h5.32q-0.11-1.08-0.85-1.75-0.72-0.68-1.82-0.68zm33.98 0q-1.09 0-1.83 0.68-0.72 0.67-0.82 1.75h5.31q-0.1-1.08-0.84-1.75-0.73-0.68-1.82-0.68z"/>
		</clipPath>
		<clipPath clipPathUnits="userSpaceOnUse" id="cp6">
			<path d="m170 7h198v15h-198zm6.24 10.47q1.19 0 2.14-0.51 0.95-0.53 1.5-1.45 0.54-0.93 0.54-2.07 0-1.13-0.54-2.05-0.55-0.93-1.5-1.45-0.95-0.52-2.14-0.52-1.18 0-2.15 0.52-0.95 0.52-1.51 1.45-0.54 0.92-0.54 2.05 0 1.14 0.54 2.07 0.56 0.92 1.51 1.45 0.97 0.51 2.15 0.51zm14.9 0.03q0.78 0 1.42-0.35 0.65-0.36 1-1.01 0.37-0.65 0.37-1.49 0-0.83-0.37-1.47-0.35-0.65-1-1.01-0.64-0.36-1.42-0.36-0.8 0-1.44 0.36-0.63 0.36-1 1.01-0.35 0.64-0.35 1.47 0 0.84 0.35 1.49 0.37 0.65 1 1.01 0.64 0.35 1.44 0.35zm33.34-5.71q-1.08 0-1.82 0.68-0.73 0.67-0.83 1.75h5.32q-0.1-1.08-0.84-1.75-0.73-0.68-1.83-0.68zm18.12 5.71q0.8 0 1.43-0.35 0.64-0.36 0.99-1.01 0.36-0.65 0.36-1.49 0-0.83-0.36-1.48-0.35-0.66-0.99-1-0.63-0.36-1.43-0.36-0.8 0-1.44 0.36-0.62 0.34-0.99 1-0.36 0.65-0.36 1.48 0 0.84 0.36 1.49 0.37 0.65 0.99 1.01 0.64 0.35 1.44 0.35zm46.15 0.1q0.85 0 1.47-0.38 0.61-0.39 0.91-1.11v-1.19h-2.35q-1.93 0-1.93 1.3 0 0.64 0.5 1.02 0.5 0.36 1.4 0.36zm19.1 0q0.86 0 1.47-0.38 0.61-0.39 0.91-1.11v-1.19h-2.35q-1.92 0-1.92 1.3 0 0.64 0.49 1.02 0.5 0.36 1.4 0.36zm21.54-5.81q-1.08 0-1.82 0.68-0.73 0.67-0.83 1.75h5.32q-0.11-1.08-0.85-1.75-0.72-0.68-1.82-0.68zm33.98 0q-1.09 0-1.83 0.68-0.72 0.67-0.82 1.75h5.31q-0.1-1.08-0.84-1.75-0.73-0.68-1.82-0.68z"/>
		</clipPath>
		<clipPath clipPathUnits="userSpaceOnUse" id="cp7">
			<path d="m170 7h198v15h-198zm6.24 10.47q1.19 0 2.14-0.51 0.95-0.53 1.5-1.45 0.54-0.93 0.54-2.07 0-1.13-0.54-2.05-0.55-0.93-1.5-1.45-0.95-0.52-2.14-0.52-1.18 0-2.15 0.52-0.95 0.52-1.51 1.45-0.54 0.92-0.54 2.05 0 1.14 0.54 2.07 0.56 0.92 1.51 1.45 0.97 0.51 2.15 0.51zm14.9 0.03q0.78 0 1.42-0.35 0.65-0.36 1-1.01 0.37-0.65 0.37-1.49 0-0.83-0.37-1.47-0.35-0.65-1-1.01-0.64-0.36-1.42-0.36-0.8 0-1.44 0.36-0.63 0.36-1 1.01-0.35 0.64-0.35 1.47 0 0.84 0.35 1.49 0.37 0.65 1 1.01 0.64 0.35 1.44 0.35zm33.34-5.71q-1.08 0-1.82 0.68-0.73 0.67-0.83 1.75h5.32q-0.1-1.08-0.84-1.75-0.73-0.68-1.83-0.68zm18.12 5.71q0.8 0 1.43-0.35 0.64-0.36 0.99-1.01 0.36-0.65 0.36-1.49 0-0.83-0.36-1.48-0.35-0.66-0.99-1-0.63-0.36-1.43-0.36-0.8 0-1.44 0.36-0.62 0.34-0.99 1-0.36 0.65-0.36 1.48 0 0.84 0.36 1.49 0.37 0.65 0.99 1.01 0.64 0.35 1.44 0.35zm46.15 0.1q0.85 0 1.47-0.38 0.61-0.39 0.91-1.11v-1.19h-2.35q-1.93 0-1.93 1.3 0 0.64 0.5 1.02 0.5 0.36 1.4 0.36zm19.1 0q0.86 0 1.47-0.38 0.61-0.39 0.91-1.11v-1.19h-2.35q-1.92 0-1.92 1.3 0 0.64 0.49 1.02 0.5 0.36 1.4 0.36zm21.54-5.81q-1.08 0-1.82 0.68-0.73 0.67-0.83 1.75h5.32q-0.11-1.08-0.85-1.75-0.72-0.68-1.82-0.68zm33.98 0q-1.09 0-1.83 0.68-0.72 0.67-0.82 1.75h5.31q-0.1-1.08-0.84-1.75-0.73-0.68-1.82-0.68z"/>
		</clipPath>
		<clipPath clipPathUnits="userSpaceOnUse" id="cp8">
			<path d="m170 7h198v15h-198zm6.24 10.47q1.19 0 2.14-0.51 0.95-0.53 1.5-1.45 0.54-0.93 0.54-2.07 0-1.13-0.54-2.05-0.55-0.93-1.5-1.45-0.95-0.52-2.14-0.52-1.18 0-2.15 0.52-0.95 0.52-1.51 1.45-0.54 0.92-0.54 2.05 0 1.14 0.54 2.07 0.56 0.92 1.51 1.45 0.97 0.51 2.15 0.51zm14.9 0.03q0.78 0 1.42-0.35 0.65-0.36 1-1.01 0.37-0.65 0.37-1.49 0-0.83-0.37-1.47-0.35-0.65-1-1.01-0.64-0.36-1.42-0.36-0.8 0-1.44 0.36-0.63 0.36-1 1.01-0.35 0.64-0.35 1.47 0 0.84 0.35 1.49 0.37 0.65 1 1.01 0.64 0.35 1.44 0.35zm33.34-5.71q-1.08 0-1.82 0.68-0.73 0.67-0.83 1.75h5.32q-0.1-1.08-0.84-1.75-0.73-0.68-1.83-0.68zm18.12 5.71q0.8 0 1.43-0.35 0.64-0.36 0.99-1.01 0.36-0.65 0.36-1.49 0-0.83-0.36-1.48-0.35-0.66-0.99-1-0.63-0.36-1.43-0.36-0.8 0-1.44 0.36-0.62 0.34-0.99 1-0.36 0.65-0.36 1.48 0 0.84 0.36 1.49 0.37 0.65 0.99 1.01 0.64 0.35 1.44 0.35zm46.15 0.1q0.85 0 1.47-0.38 0.61-0.39 0.91-1.11v-1.19h-2.35q-1.93 0-1.93 1.3 0 0.64 0.5 1.02 0.5 0.36 1.4 0.36zm19.1 0q0.86 0 1.47-0.38 0.61-0.39 0.91-1.11v-1.19h-2.35q-1.92 0-1.92 1.3 0 0.64 0.49 1.02 0.5 0.36 1.4 0.36zm21.54-5.81q-1.08 0-1.82 0.68-0.73 0.67-0.83 1.75h5.32q-0.11-1.08-0.85-1.75-0.72-0.68-1.82-0.68zm33.98 0q-1.09 0-1.83 0.68-0.72 0.67-0.82 1.75h5.31q-0.1-1.08-0.84-1.75-0.73-0.68-1.82-0.68z"/>
		</clipPath>
		<clipPath clipPathUnits="userSpaceOnUse" id="cp9">
			<path d="m170 7h198v15h-198zm6.24 10.47q1.19 0 2.14-0.51 0.95-0.53 1.5-1.45 0.54-0.93 0.54-2.07 0-1.13-0.54-2.05-0.55-0.93-1.5-1.45-0.95-0.52-2.14-0.52-1.18 0-2.15 0.52-0.95 0.52-1.51 1.45-0.54 0.92-0.54 2.05 0 1.14 0.54 2.07 0.56 0.92 1.51 1.45 0.97 0.51 2.15 0.51zm14.9 0.03q0.78 0 1.42-0.35 0.65-0.36 1-1.01 0.37-0.65 0.37-1.49 0-0.83-0.37-1.47-0.35-0.65-1-1.01-0.64-0.36-1.42-0.36-0.8 0-1.44 0.36-0.63 0.36-1 1.01-0.35 0.64-0.35 1.47 0 0.84 0.35 1.49 0.37 0.65 1 1.01 0.64 0.35 1.44 0.35zm33.34-5.71q-1.08 0-1.82 0.68-0.73 0.67-0.83 1.75h5.32q-0.1-1.08-0.84-1.75-0.73-0.68-1.83-0.68zm18.12 5.71q0.8 0 1.43-0.35 0.64-0.36 0.99-1.01 0.36-0.65 0.36-1.49 0-0.83-0.36-1.48-0.35-0.66-0.99-1-0.63-0.36-1.43-0.36-0.8 0-1.44 0.36-0.62 0.34-0.99 1-0.36 0.65-0.36 1.48 0 0.84 0.36 1.49 0.37 0.65 0.99 1.01 0.64 0.35 1.44 0.35zm46.15 0.1q0.85 0 1.47-0.38 0.61-0.39 0.91-1.11v-1.19h-2.35q-1.93 0-1.93 1.3 0 0.64 0.5 1.02 0.5 0.36 1.4 0.36zm19.1 0q0.86 0 1.47-0.38 0.61-0.39 0.91-1.11v-1.19h-2.35q-1.92 0-1.92 1.3 0 0.64 0.49 1.02 0.5 0.36 1.4 0.36zm21.54-5.81q-1.08 0-1.82 0.68-0.73 0.67-0.83 1.75h5.32q-0.11-1.08-0.85-1.75-0.72-0.68-1.82-0.68zm33.98 0q-1.09 0-1.83 0.68-0.72 0.67-0.82 1.75h5.31q-0.1-1.08-0.84-1.75-0.73-0.68-1.82-0.68z"/>
		</clipPath>
		<clipPath clipPathUnits="userSpaceOnUse" id="cp10">
			<path d="m170 7h198v15h-198zm6.24 10.47q1.19 0 2.14-0.51 0.95-0.53 1.5-1.45 0.54-0.93 0.54-2.07 0-1.13-0.54-2.05-0.55-0.93-1.5-1.45-0.95-0.52-2.14-0.52-1.18 0-2.15 0.52-0.95 0.52-1.51 1.45-0.54 0.92-0.54 2.05 0 1.14 0.54 2.07 0.56 0.92 1.51 1.45 0.97 0.51 2.15 0.51zm14.9 0.03q0.78 0 1.42-0.35 0.65-0.36 1-1.01 0.37-0.65 0.37-1.49 0-0.83-0.37-1.47-0.35-0.65-1-1.01-0.64-0.36-1.42-0.36-0.8 0-1.44 0.36-0.63 0.36-1 1.01-0.35 0.64-0.35 1.47 0 0.84 0.35 1.49 0.37 0.65 1 1.01 0.64 0.35 1.44 0.35zm33.34-5.71q-1.08 0-1.82 0.68-0.73 0.67-0.83 1.75h5.32q-0.1-1.08-0.84-1.75-0.73-0.68-1.83-0.68zm18.12 5.71q0.8 0 1.43-0.35 0.64-0.36 0.99-1.01 0.36-0.65 0.36-1.49 0-0.83-0.36-1.48-0.35-0.66-0.99-1-0.63-0.36-1.43-0.36-0.8 0-1.44 0.36-0.62 0.34-0.99 1-0.36 0.65-0.36 1.48 0 0.84 0.36 1.49 0.37 0.65 0.99 1.01 0.64 0.35 1.44 0.35zm46.15 0.1q0.85 0 1.47-0.38 0.61-0.39 0.91-1.11v-1.19h-2.35q-1.93 0-1.93 1.3 0 0.64 0.5 1.02 0.5 0.36 1.4 0.36zm19.1 0q0.86 0 1.47-0.38 0.61-0.39 0.91-1.11v-1.19h-2.35q-1.92 0-1.92 1.3 0 0.64 0.49 1.02 0.5 0.36 1.4 0.36zm21.54-5.81q-1.08 0-1.82 0.68-0.73 0.67-0.83 1.75h5.32q-0.11-1.08-0.85-1.75-0.72-0.68-1.82-0.68zm33.98 0q-1.09 0-1.83 0.68-0.72 0.67-0.82 1.75h5.31q-0.1-1.08-0.84-1.75-0.73-0.68-1.82-0.68z"/>
		</clipPath>
		<clipPath clipPathUnits="userSpaceOnUse" id="cp11">
			<path d="m170 7h198v15h-198zm6.24 10.47q1.19 0 2.14-0.51 0.95-0.53 1.5-1.45 0.54-0.93 0.54-2.07 0-1.13-0.54-2.05-0.55-0.93-1.5-1.45-0.95-0.52-2.14-0.52-1.18 0-2.15 0.52-0.95 0.52-1.51 1.45-0.54 0.92-0.54 2.05 0 1.14 0.54 2.07 0.56 0.92 1.51 1.45 0.97 0.51 2.15 0.51zm14.9 0.03q0.78 0 1.42-0.35 0.65-0.36 1-1.01 0.37-0.65 0.37-1.49 0-0.83-0.37-1.47-0.35-0.65-1-1.01-0.64-0.36-1.42-0.36-0.8 0-1.44 0.36-0.63 0.36-1 1.01-0.35 0.64-0.35 1.47 0 0.84 0.35 1.49 0.37 0.65 1 1.01 0.64 0.35 1.44 0.35zm33.34-5.71q-1.08 0-1.82 0.68-0.73 0.67-0.83 1.75h5.32q-0.1-1.08-0.84-1.75-0.73-0.68-1.83-0.68zm18.12 5.71q0.8 0 1.43-0.35 0.64-0.36 0.99-1.01 0.36-0.65 0.36-1.49 0-0.83-0.36-1.48-0.35-0.66-0.99-1-0.63-0.36-1.43-0.36-0.8 0-1.44 0.36-0.62 0.34-0.99 1-0.36 0.65-0.36 1.48 0 0.84 0.36 1.49 0.37 0.65 0.99 1.01 0.64 0.35 1.44 0.35zm46.15 0.1q0.85 0 1.47-0.38 0.61-0.39 0.91-1.11v-1.19h-2.35q-1.93 0-1.93 1.3 0 0.64 0.5 1.02 0.5 0.36 1.4 0.36zm19.1 0q0.86 0 1.47-0.38 0.61-0.39 0.91-1.11v-1.19h-2.35q-1.92 0-1.92 1.3 0 0.64 0.49 1.02 0.5 0.36 1.4 0.36zm21.54-5.81q-1.08 0-1.82 0.68-0.73 0.67-0.83 1.75h5.32q-0.11-1.08-0.85-1.75-0.72-0.68-1.82-0.68zm33.98 0q-1.09 0-1.83 0.68-0.72 0.67-0.82 1.75h5.31q-0.1-1.08-0.84-1.75-0.73-0.68-1.82-0.68z"/>
		</clipPath>
		<clipPath clipPathUnits="userSpaceOnUse" id="cp12">
			<path d="m170 7h198v15h-198zm6.24 10.47q1.19 0 2.14-0.51 0.95-0.53 1.5-1.45 0.54-0.93 0.54-2.07 0-1.13-0.54-2.05-0.55-0.93-1.5-1.45-0.95-0.52-2.14-0.52-1.18 0-2.15 0.52-0.95 0.52-1.51 1.45-0.54 0.92-0.54 2.05 0 1.14 0.54 2.07 0.56 0.92 1.51 1.45 0.97 0.51 2.15 0.51zm14.9 0.03q0.78 0 1.42-0.35 0.65-0.36 1-1.01 0.37-0.65 0.37-1.49 0-0.83-0.37-1.47-0.35-0.65-1-1.01-0.64-0.36-1.42-0.36-0.8 0-1.44 0.36-0.63 0.36-1 1.01-0.35 0.64-0.35 1.47 0 0.84 0.35 1.49 0.37 0.65 1 1.01 0.64 0.35 1.44 0.35zm33.34-5.71q-1.08 0-1.82 0.68-0.73 0.67-0.83 1.75h5.32q-0.1-1.08-0.84-1.75-0.73-0.68-1.83-0.68zm18.12 5.71q0.8 0 1.43-0.35 0.64-0.36 0.99-1.01 0.36-0.65 0.36-1.49 0-0.83-0.36-1.48-0.35-0.66-0.99-1-0.63-0.36-1.43-0.36-0.8 0-1.44 0.36-0.62 0.34-0.99 1-0.36 0.65-0.36 1.48 0 0.84 0.36 1.49 0.37 0.65 0.99 1.01 0.64 0.35 1.44 0.35zm46.15 0.1q0.85 0 1.47-0.38 0.61-0.39 0.91-1.11v-1.19h-2.35q-1.93 0-1.93 1.3 0 0.64 0.5 1.02 0.5 0.36 1.4 0.36zm19.1 0q0.86 0 1.47-0.38 0.61-0.39 0.91-1.11v-1.19h-2.35q-1.92 0-1.92 1.3 0 0.64 0.49 1.02 0.5 0.36 1.4 0.36zm21.54-5.81q-1.08 0-1.82 0.68-0.73 0.67-0.83 1.75h5.32q-0.11-1.08-0.85-1.75-0.72-0.68-1.82-0.68zm33.98 0q-1.09 0-1.83 0.68-0.72 0.67-0.82 1.75h5.31q-0.1-1.08-0.84-1.75-0.73-0.68-1.82-0.68z"/>
		</clipPath>
		<clipPath clipPathUnits="userSpaceOnUse" id="cp13">
			<path d="m170 7h198v15h-198zm6.24 10.47q1.19 0 2.14-0.51 0.95-0.53 1.5-1.45 0.54-0.93 0.54-2.07 0-1.13-0.54-2.05-0.55-0.93-1.5-1.45-0.95-0.52-2.14-0.52-1.18 0-2.15 0.52-0.95 0.52-1.51 1.45-0.54 0.92-0.54 2.05 0 1.14 0.54 2.07 0.56 0.92 1.51 1.45 0.97 0.51 2.15 0.51zm14.9 0.03q0.78 0 1.42-0.35 0.65-0.36 1-1.01 0.37-0.65 0.37-1.49 0-0.83-0.37-1.47-0.35-0.65-1-1.01-0.64-0.36-1.42-0.36-0.8 0-1.44 0.36-0.63 0.36-1 1.01-0.35 0.64-0.35 1.47 0 0.84 0.35 1.49 0.37 0.65 1 1.01 0.64 0.35 1.44 0.35zm33.34-5.71q-1.08 0-1.82 0.68-0.73 0.67-0.83 1.75h5.32q-0.1-1.08-0.84-1.75-0.73-0.68-1.83-0.68zm18.12 5.71q0.8 0 1.43-0.35 0.64-0.36 0.99-1.01 0.36-0.65 0.36-1.49 0-0.83-0.36-1.48-0.35-0.66-0.99-1-0.63-0.36-1.43-0.36-0.8 0-1.44 0.36-0.62 0.34-0.99 1-0.36 0.65-0.36 1.48 0 0.84 0.36 1.49 0.37 0.65 0.99 1.01 0.64 0.35 1.44 0.35zm46.15 0.1q0.85 0 1.47-0.38 0.61-0.39 0.91-1.11v-1.19h-2.35q-1.93 0-1.93 1.3 0 0.64 0.5 1.02 0.5 0.36 1.4 0.36zm19.1 0q0.86 0 1.47-0.38 0.61-0.39 0.91-1.11v-1.19h-2.35q-1.92 0-1.92 1.3 0 0.64 0.49 1.02 0.5 0.36 1.4 0.36zm21.54-5.81q-1.08 0-1.82 0.68-0.73 0.67-0.83 1.75h5.32q-0.11-1.08-0.85-1.75-0.72-0.68-1.82-0.68zm33.98 0q-1.09 0-1.83 0.68-0.72 0.67-0.82 1.75h5.31q-0.1-1.08-0.84-1.75-0.73-0.68-1.82-0.68z"/>
		</clipPath>
		<clipPath clipPathUnits="userSpaceOnUse" id="cp14">
			<path d="m170 7h198v15h-198zm6.24 10.47q1.19 0 2.14-0.51 0.95-0.53 1.5-1.45 0.54-0.93 0.54-2.07 0-1.13-0.54-2.05-0.55-0.93-1.5-1.45-0.95-0.52-2.14-0.52-1.18 0-2.15 0.52-0.95 0.52-1.51 1.45-0.54 0.92-0.54 2.05 0 1.14 0.54 2.07 0.56 0.92 1.51 1.45 0.97 0.51 2.15 0.51zm14.9 0.03q0.78 0 1.42-0.35 0.65-0.36 1-1.01 0.37-0.65 0.37-1.49 0-0.83-0.37-1.47-0.35-0.65-1-1.01-0.64-0.36-1.42-0.36-0.8 0-1.44 0.36-0.63 0.36-1 1.01-0.35 0.64-0.35 1.47 0 0.84 0.35 1.49 0.37 0.65 1 1.01 0.64 0.35 1.44 0.35zm33.34-5.71q-1.08 0-1.82 0.68-0.73 0.67-0.83 1.75h5.32q-0.1-1.08-0.84-1.75-0.73-0.68-1.83-0.68zm18.12 5.71q0.8 0 1.43-0.35 0.64-0.36 0.99-1.01 0.36-0.65 0.36-1.49 0-0.83-0.36-1.48-0.35-0.66-0.99-1-0.63-0.36-1.43-0.36-0.8 0-1.44 0.36-0.62 0.34-0.99 1-0.36 0.65-0.36 1.48 0 0.84 0.36 1.49 0.37 0.65 0.99 1.01 0.64 0.35 1.44 0.35zm46.15 0.1q0.85 0 1.47-0.38 0.61-0.39 0.91-1.11v-1.19h-2.35q-1.93 0-1.93 1.3 0 0.64 0.5 1.02 0.5 0.36 1.4 0.36zm19.1 0q0.86 0 1.47-0.38 0.61-0.39 0.91-1.11v-1.19h-2.35q-1.92 0-1.92 1.3 0 0.64 0.49 1.02 0.5 0.36 1.4 0.36zm21.54-5.81q-1.08 0-1.82 0.68-0.73 0.67-0.83 1.75h5.32q-0.11-1.08-0.85-1.75-0.72-0.68-1.82-0.68zm33.98 0q-1.09 0-1.83 0.68-0.72 0.67-0.82 1.75h5.31q-0.1-1.08-0.84-1.75-0.73-0.68-1.82-0.68z"/>
		</clipPath>
		<clipPath clipPathUnits="userSpaceOnUse" id="cp15">
			<path d="m170 7h198v15h-198zm6.24 10.47q1.19 0 2.14-0.51 0.95-0.53 1.5-1.45 0.54-0.93 0.54-2.07 0-1.13-0.54-2.05-0.55-0.93-1.5-1.45-0.95-0.52-2.14-0.52-1.18 0-2.15 0.52-0.95 0.52-1.51 1.45-0.54 0.92-0.54 2.05 0 1.14 0.54 2.07 0.56 0.92 1.51 1.45 0.97 0.51 2.15 0.51zm14.9 0.03q0.78 0 1.42-0.35 0.65-0.36 1-1.01 0.37-0.65 0.37-1.49 0-0.83-0.37-1.47-0.35-0.65-1-1.01-0.64-0.36-1.42-0.36-0.8 0-1.44 0.36-0.63 0.36-1 1.01-0.35 0.64-0.35 1.47 0 0.84 0.35 1.49 0.37 0.65 1 1.01 0.64 0.35 1.44 0.35zm33.34-5.71q-1.08 0-1.82 0.68-0.73 0.67-0.83 1.75h5.32q-0.1-1.08-0.84-1.75-0.73-0.68-1.83-0.68zm18.12 5.71q0.8 0 1.43-0.35 0.64-0.36 0.99-1.01 0.36-0.65 0.36-1.49 0-0.83-0.36-1.48-0.35-0.66-0.99-1-0.63-0.36-1.43-0.36-0.8 0-1.44 0.36-0.62 0.34-0.99 1-0.36 0.65-0.36 1.48 0 0.84 0.36 1.49 0.37 0.65 0.99 1.01 0.64 0.35 1.44 0.35zm46.15 0.1q0.85 0 1.47-0.38 0.61-0.39 0.91-1.11v-1.19h-2.35q-1.93 0-1.93 1.3 0 0.64 0.5 1.02 0.5 0.36 1.4 0.36zm19.1 0q0.86 0 1.47-0.38 0.61-0.39 0.91-1.11v-1.19h-2.35q-1.92 0-1.92 1.3 0 0.64 0.49 1.02 0.5 0.36 1.4 0.36zm21.54-5.81q-1.08 0-1.82 0.68-0.73 0.67-0.83 1.75h5.32q-0.11-1.08-0.85-1.75-0.72-0.68-1.82-0.68zm33.98 0q-1.09 0-1.83 0.68-0.72 0.67-0.82 1.75h5.31q-0.1-1.08-0.84-1.75-0.73-0.68-1.82-0.68z"/>
		</clipPath>
		<clipPath clipPathUnits="userSpaceOnUse" id="cp16">
			<path d="m170 7h198v15h-198zm6.24 10.47q1.19 0 2.14-0.51 0.95-0.53 1.5-1.45 0.54-0.93 0.54-2.07 0-1.13-0.54-2.05-0.55-0.93-1.5-1.45-0.95-0.52-2.14-0.52-1.18 0-2.15 0.52-0.95 0.52-1.51 1.45-0.54 0.92-0.54 2.05 0 1.14 0.54 2.07 0.56 0.92 1.51 1.45 0.97 0.51 2.15 0.51zm14.9 0.03q0.78 0 1.42-0.35 0.65-0.36 1-1.01 0.37-0.65 0.37-1.49 0-0.83-0.37-1.47-0.35-0.65-1-1.01-0.64-0.36-1.42-0.36-0.8 0-1.44 0.36-0.63 0.36-1 1.01-0.35 0.64-0.35 1.47 0 0.84 0.35 1.49 0.37 0.65 1 1.01 0.64 0.35 1.44 0.35zm33.34-5.71q-1.08 0-1.82 0.68-0.73 0.67-0.83 1.75h5.32q-0.1-1.08-0.84-1.75-0.73-0.68-1.83-0.68zm18.12 5.71q0.8 0 1.43-0.35 0.64-0.36 0.99-1.01 0.36-0.65 0.36-1.49 0-0.83-0.36-1.48-0.35-0.66-0.99-1-0.63-0.36-1.43-0.36-0.8 0-1.44 0.36-0.62 0.34-0.99 1-0.36 0.65-0.36 1.48 0 0.84 0.36 1.49 0.37 0.65 0.99 1.01 0.64 0.35 1.44 0.35zm46.15 0.1q0.85 0 1.47-0.38 0.61-0.39 0.91-1.11v-1.19h-2.35q-1.93 0-1.93 1.3 0 0.64 0.5 1.02 0.5 0.36 1.4 0.36zm19.1 0q0.86 0 1.47-0.38 0.61-0.39 0.91-1.11v-1.19h-2.35q-1.92 0-1.92 1.3 0 0.64 0.49 1.02 0.5 0.36 1.4 0.36zm21.54-5.81q-1.08 0-1.82 0.68-0.73 0.67-0.83 1.75h5.32q-0.11-1.08-0.85-1.75-0.72-0.68-1.82-0.68zm33.98 0q-1.09 0-1.83 0.68-0.72 0.67-0.82 1.75h5.31q-0.1-1.08-0.84-1.75-0.73-0.68-1.82-0.68z"/>
		</clipPath>
		<clipPath clipPathUnits="userSpaceOnUse" id="cp17">
			<path d="m170 7h198v15h-198zm6.24 10.47q1.19 0 2.14-0.51 0.95-0.53 1.5-1.45 0.54-0.93 0.54-2.07 0-1.13-0.54-2.05-0.55-0.93-1.5-1.45-0.95-0.52-2.14-0.52-1.18 0-2.15 0.52-0.95 0.52-1.51 1.45-0.54 0.92-0.54 2.05 0 1.14 0.54 2.07 0.56 0.92 1.51 1.45 0.97 0.51 2.15 0.51zm14.9 0.03q0.78 0 1.42-0.35 0.65-0.36 1-1.01 0.37-0.65 0.37-1.49 0-0.83-0.37-1.47-0.35-0.65-1-1.01-0.64-0.36-1.42-0.36-0.8 0-1.44 0.36-0.63 0.36-1 1.01-0.35 0.64-0.35 1.47 0 0.84 0.35 1.49 0.37 0.65 1 1.01 0.64 0.35 1.44 0.35zm33.34-5.71q-1.08 0-1.82 0.68-0.73 0.67-0.83 1.75h5.32q-0.1-1.08-0.84-1.75-0.73-0.68-1.83-0.68zm18.12 5.71q0.8 0 1.43-0.35 0.64-0.36 0.99-1.01 0.36-0.65 0.36-1.49 0-0.83-0.36-1.48-0.35-0.66-0.99-1-0.63-0.36-1.43-0.36-0.8 0-1.44 0.36-0.62 0.34-0.99 1-0.36 0.65-0.36 1.48 0 0.84 0.36 1.49 0.37 0.65 0.99 1.01 0.64 0.35 1.44 0.35zm46.15 0.1q0.85 0 1.47-0.38 0.61-0.39 0.91-1.11v-1.19h-2.35q-1.93 0-1.93 1.3 0 0.64 0.5 1.02 0.5 0.36 1.4 0.36zm19.1 0q0.86 0 1.47-0.38 0.61-0.39 0.91-1.11v-1.19h-2.35q-1.92 0-1.92 1.3 0 0.64 0.49 1.02 0.5 0.36 1.4 0.36zm21.54-5.81q-1.08 0-1.82 0.68-0.73 0.67-0.83 1.75h5.32q-0.11-1.08-0.85-1.75-0.72-0.68-1.82-0.68zm33.98 0q-1.09 0-1.83 0.68-0.72 0.67-0.82 1.75h5.31q-0.1-1.08-0.84-1.75-0.73-0.68-1.82-0.68z"/>
		</clipPath>
		<clipPath clipPathUnits="userSpaceOnUse" id="cp18">
			<path d="m170 7h198v15h-198zm6.24 10.47q1.19 0 2.14-0.51 0.95-0.53 1.5-1.45 0.54-0.93 0.54-2.07 0-1.13-0.54-2.05-0.55-0.93-1.5-1.45-0.95-0.52-2.14-0.52-1.18 0-2.15 0.52-0.95 0.52-1.51 1.45-0.54 0.92-0.54 2.05 0 1.14 0.54 2.07 0.56 0.92 1.51 1.45 0.97 0.51 2.15 0.51zm14.9 0.03q0.78 0 1.42-0.35 0.65-0.36 1-1.01 0.37-0.65 0.37-1.49 0-0.83-0.37-1.47-0.35-0.65-1-1.01-0.64-0.36-1.42-0.36-0.8 0-1.44 0.36-0.63 0.36-1 1.01-0.35 0.64-0.35 1.47 0 0.84 0.35 1.49 0.37 0.65 1 1.01 0.64 0.35 1.44 0.35zm33.34-5.71q-1.08 0-1.82 0.68-0.73 0.67-0.83 1.75h5.32q-0.1-1.08-0.84-1.75-0.73-0.68-1.83-0.68zm18.12 5.71q0.8 0 1.43-0.35 0.64-0.36 0.99-1.01 0.36-0.65 0.36-1.49 0-0.83-0.36-1.48-0.35-0.66-0.99-1-0.63-0.36-1.43-0.36-0.8 0-1.44 0.36-0.62 0.34-0.99 1-0.36 0.65-0.36 1.48 0 0.84 0.36 1.49 0.37 0.65 0.99 1.01 0.64 0.35 1.44 0.35zm46.15 0.1q0.85 0 1.47-0.38 0.61-0.39 0.91-1.11v-1.19h-2.35q-1.93 0-1.93 1.3 0 0.64 0.5 1.02 0.5 0.36 1.4 0.36zm19.1 0q0.86 0 1.47-0.38 0.61-0.39 0.91-1.11v-1.19h-2.35q-1.92 0-1.92 1.3 0 0.64 0.49 1.02 0.5 0.36 1.4 0.36zm21.54-5.81q-1.08 0-1.82 0.68-0.73 0.67-0.83 1.75h5.32q-0.11-1.08-0.85-1.75-0.72-0.68-1.82-0.68zm33.98 0q-1.09 0-1.83 0.68-0.72 0.67-0.82 1.75h5.31q-0.1-1.08-0.84-1.75-0.73-0.68-1.82-0.68z"/>
		</clipPath>
		<clipPath clipPathUnits="userSpaceOnUse" id="cp19">
			<path d="m170 7h198v15h-198zm6.24 10.47q1.19 0 2.14-0.51 0.95-0.53 1.5-1.45 0.54-0.93 0.54-2.07 0-1.13-0.54-2.05-0.55-0.93-1.5-1.45-0.95-0.52-2.14-0.52-1.18 0-2.15 0.52-0.95 0.52-1.51 1.45-0.54 0.92-0.54 2.05 0 1.14 0.54 2.07 0.56 0.92 1.51 1.45 0.97 0.51 2.15 0.51zm14.9 0.03q0.78 0 1.42-0.35 0.65-0.36 1-1.01 0.37-0.65 0.37-1.49 0-0.83-0.37-1.47-0.35-0.65-1-1.01-0.64-0.36-1.42-0.36-0.8 0-1.44 0.36-0.63 0.36-1 1.01-0.35 0.64-0.35 1.47 0 0.84 0.35 1.49 0.37 0.65 1 1.01 0.64 0.35 1.44 0.35zm33.34-5.71q-1.08 0-1.82 0.68-0.73 0.67-0.83 1.75h5.32q-0.1-1.08-0.84-1.75-0.73-0.68-1.83-0.68zm18.12 5.71q0.8 0 1.43-0.35 0.64-0.36 0.99-1.01 0.36-0.65 0.36-1.49 0-0.83-0.36-1.48-0.35-0.66-0.99-1-0.63-0.36-1.43-0.36-0.8 0-1.44 0.36-0.62 0.34-0.99 1-0.36 0.65-0.36 1.48 0 0.84 0.36 1.49 0.37 0.65 0.99 1.01 0.64 0.35 1.44 0.35zm46.15 0.1q0.85 0 1.47-0.38 0.61-0.39 0.91-1.11v-1.19h-2.35q-1.93 0-1.93 1.3 0 0.64 0.5 1.02 0.5 0.36 1.4 0.36zm19.1 0q0.86 0 1.47-0.38 0.61-0.39 0.91-1.11v-1.19h-2.35q-1.92 0-1.92 1.3 0 0.64 0.49 1.02 0.5 0.36 1.4 0.36zm21.54-5.81q-1.08 0-1.82 0.68-0.73 0.67-0.83 1.75h5.32q-0.11-1.08-0.85-1.75-0.72-0.68-1.82-0.68zm33.98 0q-1.09 0-1.83 0.68-0.72 0.67-0.82 1.75h5.31q-0.1-1.08-0.84-1.75-0.73-0.68-1.82-0.68z"/>
		</clipPath>
		<clipPath clipPathUnits="userSpaceOnUse" id="cp20">
			<path d="m170 7h198v15h-198zm6.24 10.47q1.19 0 2.14-0.51 0.95-0.53 1.5-1.45 0.54-0.93 0.54-2.07 0-1.13-0.54-2.05-0.55-0.93-1.5-1.45-0.95-0.52-2.14-0.52-1.18 0-2.15 0.52-0.95 0.52-1.51 1.45-0.54 0.92-0.54 2.05 0 1.14 0.54 2.07 0.56 0.92 1.51 1.45 0.97 0.51 2.15 0.51zm14.9 0.03q0.78 0 1.42-0.35 0.65-0.36 1-1.01 0.37-0.65 0.37-1.49 0-0.83-0.37-1.47-0.35-0.65-1-1.01-0.64-0.36-1.42-0.36-0.8 0-1.44 0.36-0.63 0.36-1 1.01-0.35 0.64-0.35 1.47 0 0.84 0.35 1.49 0.37 0.65 1 1.01 0.64 0.35 1.44 0.35zm33.34-5.71q-1.08 0-1.82 0.68-0.73 0.67-0.83 1.75h5.32q-0.1-1.08-0.84-1.75-0.73-0.68-1.83-0.68zm18.12 5.71q0.8 0 1.43-0.35 0.64-0.36 0.99-1.01 0.36-0.65 0.36-1.49 0-0.83-0.36-1.48-0.35-0.66-0.99-1-0.63-0.36-1.43-0.36-0.8 0-1.44 0.36-0.62 0.34-0.99 1-0.36 0.65-0.36 1.48 0 0.84 0.36 1.49 0.37 0.65 0.99 1.01 0.64 0.35 1.44 0.35zm46.15 0.1q0.85 0 1.47-0.38 0.61-0.39 0.91-1.11v-1.19h-2.35q-1.93 0-1.93 1.3 0 0.64 0.5 1.02 0.5 0.36 1.4 0.36zm19.1 0q0.86 0 1.47-0.38 0.61-0.39 0.91-1.11v-1.19h-2.35q-1.92 0-1.92 1.3 0 0.64 0.49 1.02 0.5 0.36 1.4 0.36zm21.54-5.81q-1.08 0-1.82 0.68-0.73 0.67-0.83 1.75h5.32q-0.11-1.08-0.85-1.75-0.72-0.68-1.82-0.68zm33.98 0q-1.09 0-1.83 0.68-0.72 0.67-0.82 1.75h5.31q-0.1-1.08-0.84-1.75-0.73-0.68-1.82-0.68z"/>
		</clipPath>
		<clipPath clipPathUnits="userSpaceOnUse" id="cp21">
			<path d="m170 7h198v15h-198zm6.24 10.47q1.19 0 2.14-0.51 0.95-0.53 1.5-1.45 0.54-0.93 0.54-2.07 0-1.13-0.54-2.05-0.55-0.93-1.5-1.45-0.95-0.52-2.14-0.52-1.18 0-2.15 0.52-0.95 0.52-1.51 1.45-0.54 0.92-0.54 2.05 0 1.14 0.54 2.07 0.56 0.92 1.51 1.45 0.97 0.51 2.15 0.51zm14.9 0.03q0.78 0 1.42-0.35 0.65-0.36 1-1.01 0.37-0.65 0.37-1.49 0-0.83-0.37-1.47-0.35-0.65-1-1.01-0.64-0.36-1.42-0.36-0.8 0-1.44 0.36-0.63 0.36-1 1.01-0.35 0.64-0.35 1.47 0 0.84 0.35 1.49 0.37 0.65 1 1.01 0.64 0.35 1.44 0.35zm33.34-5.71q-1.08 0-1.82 0.68-0.73 0.67-0.83 1.75h5.32q-0.1-1.08-0.84-1.75-0.73-0.68-1.83-0.68zm18.12 5.71q0.8 0 1.43-0.35 0.64-0.36 0.99-1.01 0.36-0.65 0.36-1.49 0-0.83-0.36-1.48-0.35-0.66-0.99-1-0.63-0.36-1.43-0.36-0.8 0-1.44 0.36-0.62 0.34-0.99 1-0.36 0.65-0.36 1.48 0 0.84 0.36 1.49 0.37 0.65 0.99 1.01 0.64 0.35 1.44 0.35zm46.15 0.1q0.85 0 1.47-0.38 0.61-0.39 0.91-1.11v-1.19h-2.35q-1.93 0-1.93 1.3 0 0.64 0.5 1.02 0.5 0.36 1.4 0.36zm19.1 0q0.86 0 1.47-0.38 0.61-0.39 0.91-1.11v-1.19h-2.35q-1.92 0-1.92 1.3 0 0.64 0.49 1.02 0.5 0.36 1.4 0.36zm21.54-5.81q-1.08 0-1.82 0.68-0.73 0.67-0.83 1.75h5.32q-0.11-1.08-0.85-1.75-0.72-0.68-1.82-0.68zm33.98 0q-1.09 0-1.83 0.68-0.72 0.67-0.82 1.75h5.31q-0.1-1.08-0.84-1.75-0.73-0.68-1.82-0.68z"/>
		</clipPath>
		<clipPath clipPathUnits="userSpaceOnUse" id="cp22">
			<path d="m170 7h198v15h-198zm6.24 10.47q1.19 0 2.14-0.51 0.95-0.53 1.5-1.45 0.54-0.93 0.54-2.07 0-1.13-0.54-2.05-0.55-0.93-1.5-1.45-0.95-0.52-2.14-0.52-1.18 0-2.15 0.52-0.95 0.52-1.51 1.45-0.54 0.92-0.54 2.05 0 1.14 0.54 2.07 0.56 0.92 1.51 1.45 0.97 0.51 2.15 0.51zm14.9 0.03q0.78 0 1.42-0.35 0.65-0.36 1-1.01 0.37-0.65 0.37-1.49 0-0.83-0.37-1.47-0.35-0.65-1-1.01-0.64-0.36-1.42-0.36-0.8 0-1.44 0.36-0.63 0.36-1 1.01-0.35 0.64-0.35 1.47 0 0.84 0.35 1.49 0.37 0.65 1 1.01 0.64 0.35 1.44 0.35zm33.34-5.71q-1.08 0-1.82 0.68-0.73 0.67-0.83 1.75h5.32q-0.1-1.08-0.84-1.75-0.73-0.68-1.83-0.68zm18.12 5.71q0.8 0 1.43-0.35 0.64-0.36 0.99-1.01 0.36-0.65 0.36-1.49 0-0.83-0.36-1.48-0.35-0.66-0.99-1-0.63-0.36-1.43-0.36-0.8 0-1.44 0.36-0.62 0.34-0.99 1-0.36 0.65-0.36 1.48 0 0.84 0.36 1.49 0.37 0.65 0.99 1.01 0.64 0.35 1.44 0.35zm46.15 0.1q0.85 0 1.47-0.38 0.61-0.39 0.91-1.11v-1.19h-2.35q-1.93 0-1.93 1.3 0 0.64 0.5 1.02 0.5 0.36 1.4 0.36zm19.1 0q0.86 0 1.47-0.38 0.61-0.39 0.91-1.11v-1.19h-2.35q-1.92 0-1.92 1.3 0 0.64 0.49 1.02 0.5 0.36 1.4 0.36zm21.54-5.81q-1.08 0-1.82 0.68-0.73 0.67-0.83 1.75h5.32q-0.11-1.08-0.85-1.75-0.72-0.68-1.82-0.68zm33.98 0q-1.09 0-1.83 0.68-0.72 0.67-0.82 1.75h5.31q-0.1-1.08-0.84-1.75-0.73-0.68-1.82-0.68z"/>
		</clipPath>
		<clipPath clipPathUnits="userSpaceOnUse" id="cp23">
			<path d="m0 0h150v22.54h-150z"/>
		</clipPath>
	</defs>
	<style>
		.s0 { fill: #ffffff } 
		.s1 { fill: #0068ff } 
	</style>
	<g id="Clip-Path" clip-path="url(#cp1)">
	</g>
	<g id="Clip-Path" clip-path="url(#cp2)">
	</g>
	<g id="Clip-Path" clip-path="url(#cp3)">
	</g>
	<g id="Clip-Path" clip-path="url(#cp4)">
	</g>
	<g id="Clip-Path" clip-path="url(#cp5)">
	</g>
	<g id="Clip-Path" clip-path="url(#cp6)">
	</g>
	<g id="Clip-Path" clip-path="url(#cp7)">
	</g>
	<g id="Clip-Path" clip-path="url(#cp8)">
	</g>
	<g id="Clip-Path" clip-path="url(#cp9)">
	</g>
	<g id="Clip-Path" clip-path="url(#cp10)">
	</g>
	<g id="Clip-Path" clip-path="url(#cp11)">
	</g>
	<g id="Clip-Path" clip-path="url(#cp12)">
	</g>
	<g id="Clip-Path" clip-path="url(#cp13)">
	</g>
	<g id="Clip-Path" clip-path="url(#cp14)">
	</g>
	<g id="Clip-Path" clip-path="url(#cp15)">
	</g>
	<g id="Clip-Path" clip-path="url(#cp16)">
	</g>
	<g id="Clip-Path" clip-path="url(#cp17)">
	</g>
	<g id="Clip-Path" clip-path="url(#cp18)">
	</g>
	<g id="Clip-Path" clip-path="url(#cp19)">
	</g>
	<g id="Clip-Path" clip-path="url(#cp20)">
	</g>
	<g id="Clip-Path" clip-path="url(#cp21)">
	</g>
	<g id="Clip-Path" clip-path="url(#cp22)">
	</g>
	<g id="Clip-Path" clip-path="url(#cp23)">
		<g id="Layer">
			<path id="Layer" class="s0" d="m3.9 18.7h11.1v3.5h-15v-21.8h3.9z"/>
			<path id="Layer" class="s0" d="m37.6 13.2v-13h3.8v13.1c0 2.6-0.9 4.7-2.7 6.4-1.8 1.8-4.1 2.7-6.8 2.7-2.8 0-5-0.9-6.9-2.7-1.8-1.7-2.7-3.8-2.7-6.4v-13.1h3.8v13q0 2.5 1.7 4.1 1.6 1.6 4.1 1.6 2.4 0 4-1.6 1.7-1.7 1.7-4.1z"/>
			<path id="Layer" fill-rule="evenodd" class="s0" d="m69.2 7.5c0 2-0.7 3.7-2.2 5-1.5 1.4-3.3 2-5.5 2h-5.9v7.6h-3.9v-21.7h9.8c2.2 0 4 0.7 5.5 2.1 1.5 1.3 2.2 2.9 2.2 5zm-4.1 0c0-2.1-1.5-3.7-3.6-3.7h-5.9v7.3h5.9c2.1 0 3.6-1.6 3.6-3.6z"/>
			<path id="Layer" class="s0" d="m81.4 18.7h12.2v3.4h-16v-21.7h15.9v3.4h-12.1v5.7h8.8v3.5h-8.8z"/>
			<path id="Layer" class="s0" d="m150 0.4v21.8h-3.6l-12.1-15.5v15.5h-3.6v-21.8h3.6l12 15.5v-15.5z"/>
			<path id="Layer" class="s1" d="m109.3 13h-11.9v-3.5h11.9z"/>
			<path id="Layer" class="s1" d="m126.5 11.3c0 6.2-5 11.2-11.2 11.2-5.1 0-9.5-3.3-10.9-8.1h3.7c1.2 2.9 4 4.7 7.2 4.7 4.3 0 7.8-3.5 7.8-7.8 0-4.4-3.5-7.9-7.8-7.9-3.1 0-6 1.9-7.2 4.7h-3.6c1.4-4.8 5.8-8.1 10.8-8.1 6.2 0 11.2 5.1 11.2 11.3z"/>
		</g>
	</g>
</svg>