<svg width="21" height="21" viewBox="0 0 21 21" fill="none" xmlns="http://www.w3.org/2000/svg">
<g id="27) Icon/download">
<path id="&#240;&#159;&#142;&#168; Icon &#208;&#161;olor" fill-rule="evenodd" clip-rule="evenodd" d="M9.25891 10.162C9.25734 10.141 9.25654 10.1197 9.25654 10.0983V3.36596C9.25654 2.90143 9.63271 2.52441 10.0981 2.52441C10.5635 2.52441 10.9396 2.90143 10.9396 3.36596V10.0983L12.9595 8.5835C13.3315 8.30326 13.8591 8.37984 14.1377 8.75181C14.4171 9.12377 14.3413 9.65142 13.9694 9.92997L10.6032 12.4546C10.4542 12.5665 10.2758 12.6229 10.0983 12.6229C9.92911 12.6229 9.75996 12.5716 9.61437 12.4698L6.24819 10.1016C5.86781 9.83403 5.77609 9.30891 6.0437 8.92937C6.31131 8.54899 6.83559 8.45727 7.21597 8.72488L9.25891 10.162ZM5.04881 14.306V15.1476H15.1473V14.306C15.1473 13.8432 15.526 13.4645 15.9889 13.4645C16.4517 13.4645 16.8304 13.8432 16.8304 14.306V15.9879L16.8304 15.9891C16.8304 16.452 16.4517 16.8307 15.9889 16.8307H4.20727C3.74442 16.8307 3.36572 16.452 3.36572 15.9891V14.306C3.36572 13.8432 3.74442 13.4645 4.20727 13.4645C4.67012 13.4645 5.04881 13.8432 5.04881 14.306Z" fill="#515251"/>
<mask id="mask0" style="mask-type:alpha" maskUnits="userSpaceOnUse" x="3" y="2" width="14" height="15">
<path id="&#240;&#159;&#142;&#168; Icon &#208;&#161;olor_2" fill-rule="evenodd" clip-rule="evenodd" d="M9.25891 10.162C9.25734 10.141 9.25654 10.1197 9.25654 10.0983V3.36596C9.25654 2.90143 9.63271 2.52441 10.0981 2.52441C10.5635 2.52441 10.9396 2.90143 10.9396 3.36596V10.0983L12.9595 8.5835C13.3315 8.30326 13.8591 8.37984 14.1377 8.75181C14.4171 9.12377 14.3413 9.65142 13.9694 9.92997L10.6032 12.4546C10.4542 12.5665 10.2758 12.6229 10.0983 12.6229C9.92911 12.6229 9.75996 12.5716 9.61437 12.4698L6.24819 10.1016C5.86781 9.83403 5.77609 9.30891 6.0437 8.92937C6.31131 8.54899 6.83559 8.45727 7.21597 8.72488L9.25891 10.162ZM5.04881 14.306V15.1476H15.1473V14.306C15.1473 13.8432 15.526 13.4645 15.9889 13.4645C16.4517 13.4645 16.8304 13.8432 16.8304 14.306V15.9879L16.8304 15.9891C16.8304 16.452 16.4517 16.8307 15.9889 16.8307H4.20727C3.74442 16.8307 3.36572 16.452 3.36572 15.9891V14.306C3.36572 13.8432 3.74442 13.4645 4.20727 13.4645C4.67012 13.4645 5.04881 13.8432 5.04881 14.306Z" fill="white"/>
</mask>
<g mask="url(#mask0)">
</g>
</g>
</svg>
