<svg width="18" height="16" viewBox="0 0 18 16" fill="none" xmlns="http://www.w3.org/2000/svg">
<path d="M1.1313 8.79016C1.1272 8.78619 1.12312 8.78219 1.11907 8.77814C0.748071 8.40714 0.748071 7.80563 1.11907 7.43464L7.83658 0.717122C8.20758 0.346124 8.80909 0.346124 9.18009 0.717122C9.55108 1.08812 9.55108 1.68963 9.18009 2.06062L4.07034 7.17037L16.5689 7.17037C17.0936 7.17037 17.5189 7.5957 17.5189 8.12037C17.5189 8.64504 17.0936 9.07037 16.5689 9.07037L4.09852 9.07037L9.18031 14.1522C9.55131 14.5232 9.55131 15.1247 9.18032 15.4957C8.80932 15.8667 8.20781 15.8667 7.83681 15.4957L1.1313 8.79016Z" fill="#8C8C8F"/>
</svg>
